HIERARCHY
ROOT SpineBase
{
  OFFSET 0.000000 0.000000 0.000000
  CHANNELS 6 Xposition Yposition Zposition Zrotation Xrotation Yrotation
  JOINT SpineMid
  {
    OFFSET 0.000000 28.957953 0.000000
    CHANNELS 3 Zrotation Xrotation Yrotation
    JOINT SpineShoulder
    {
      OFFSET -0.013472 21.467646 -0.716816
      CHANNELS 3 Zrotation Xrotation Yrotation
      JOINT Neck
      {
        OFFSET 0.007249 7.097798 -0.554128
        CHANNELS 3 Zrotation Xrotation Yrotation
        JOINT Head
        {
          OFFSET -4.065670 12.835259 -0.881516
          CHANNELS 3 Zrotation Xrotation Yrotation
          End Site
          {
            OFFSET 0 0 0
          }
        }
      }
      JOINT ShoulderLeft
      {
        OFFSET -13.820828 -4.498908 6.484173
        CHANNELS 3 Zrotation Xrotation Yrotation
        JOINT ElbowLeft
        {
          OFFSET -0.692520 -28.998666 1.024910
          CHANNELS 3 Zrotation Xrotation Yrotation
          JOINT WristLeft
          {
            OFFSET 1.023086 -20.239587 -7.335805
            CHANNELS 3 Zrotation Xrotation Yrotation
            JOINT HandLeft
            {
              OFFSET 0.160417 -0.630562 -0.261300
              CHANNELS 3 Zrotation Xrotation Yrotation
              JOINT HandTipLeft
              {
                OFFSET 0.686197 -6.364193 -0.766259
                CHANNELS 3 Zrotation Xrotation Yrotation
                End Site
                {
                  OFFSET 0 0 0
                }
              }
              JOINT ThumbLeft
              {
                OFFSET -2.873848 -1.174716 -1.221941
                CHANNELS 3 Zrotation Xrotation Yrotation
                End Site
                {
                  OFFSET 0 0 0
                }
              }
            }
          }
        }
      }
      JOINT ShoulderRight
      {
        OFFSET 11.867580 -3.293186 -10.645575
        CHANNELS 3 Zrotation Xrotation Yrotation
        JOINT ElbowRight
        {
          OFFSET 5.112817 -20.922451 -3.444784
          CHANNELS 3 Zrotation Xrotation Yrotation
          JOINT WristRight
          {
            OFFSET -3.955028 -20.672412 -4.477197
            CHANNELS 3 Zrotation Xrotation Yrotation
            JOINT HandRight
            {
              OFFSET -1.573875 -7.761805 0.308811
              CHANNELS 3 Zrotation Xrotation Yrotation
              JOINT HandTipRight
              {
                OFFSET -0.237211 -6.820851 -0.435193
                CHANNELS 3 Zrotation Xrotation Yrotation
                End Site
                {
                  OFFSET 0 0 0
                }
              }
              JOINT ThumbRight
              {
                OFFSET 3.252830 -0.571553 -0.916091
                CHANNELS 3 Zrotation Xrotation Yrotation
                End Site
                {
                  OFFSET 0 0 0
                }
              }
            }
          }
        }
      }
    }
  }
  JOINT HipLeft
  {
    OFFSET -5.923237 0.278191 0.210621
    CHANNELS 3 Zrotation Xrotation Yrotation
    JOINT KneeLeft
    {
      OFFSET 7.672961 -33.434454 5.621641
      CHANNELS 3 Zrotation Xrotation Yrotation
      JOINT AnkleLeft
      {
        OFFSET 6.991692 -33.709081 3.658437
        CHANNELS 3 Zrotation Xrotation Yrotation
        JOINT FootLeft
        {
          OFFSET -5.597231 -6.176382 -3.061353
          CHANNELS 3 Zrotation Xrotation Yrotation
          End Site
          {
            OFFSET 0 0 0
          }
        }
      }
    }
  }
  JOINT HipRight
  {
    OFFSET 6.094594 1.059394 -7.048600
    CHANNELS 3 Zrotation Xrotation Yrotation
    JOINT KneeRight
    {
      OFFSET 11.671306 -30.530436 -4.901723
      CHANNELS 3 Zrotation Xrotation Yrotation
      JOINT AnkleRight
      {
        OFFSET 8.908127 -31.507810 -3.136060
        CHANNELS 3 Zrotation Xrotation Yrotation
        JOINT FootRight
        {
          OFFSET -1.915801 -6.394842 -7.854736
          CHANNELS 3 Zrotation Xrotation Yrotation
          End Site
          {
            OFFSET 0 0 0
          }
        }
      }
    }
  }
}
MOTION
Frames: 13
Frame Time: 0.033333
-17.121127 67.024194 355.935247 -15.791065 -30.348179 1.110893 0.625287 -0.281402 -6.107576 0.835283 -0.083668 -0.727067 -23.716700 8.112698 0.263537 0.000000 0.000000 0.000000 -10.296986 28.726588 8.485274 76.520434 -21.057166 -12.661151 -16.618297 -8.488595 5.061098 -1.833096 9.538706 12.779438 0.000000 0.000000 0.000000 0.000000 0.000000 0.000000 -1.431334 -15.134952 -11.207528 -7.744768 59.338218 18.189896 -9.732452 -8.997740 -2.500175 10.458443 15.683457 2.029695 0.000000 0.000000 0.000000 0.000000 0.000000 0.000000 1.369248 19.740258 -8.096683 18.524935 2.396230 1.464339 -11.270160 4.155469 10.619802 0.000000 0.000000 0.000000 24.862001 44.407525 -8.081588 0.234129 -12.738893 -4.725346 8.336527 -0.508066 -15.291379 0.000000 0.000000 0.000000
-15.004388 67.820490 355.855055 -14.472359 -35.507080 2.254391 0.044702 -0.150096 -7.398359 1.157437 0.093105 -0.768670 -24.492954 14.722875 4.317446 0.000000 0.000000 0.000000 -10.821363 32.087632 9.299454 77.152752 -21.768010 -14.158054 -15.859977 -1.172574 2.812900 -2.528462 1.914918 15.389731 0.000000 0.000000 0.000000 0.000000 0.000000 0.000000 -1.153066 -10.596492 -10.936959 -13.674710 59.191812 22.612816 -5.288589 -17.436398 -1.187669 7.363255 22.382839 0.095161 0.000000 0.000000 0.000000 0.000000 0.000000 0.000000 -1.050301 23.547721 -8.624735 16.894243 4.373947 1.779145 -6.512753 2.505392 10.823554 0.000000 0.000000 0.000000 22.649853 49.678746 -8.752370 1.178253 -14.015508 -5.415888 10.005379 -0.997073 -14.956710 0.000000 0.000000 0.000000
-12.637967 68.253541 355.658845 -11.582618 -38.947261 4.318466 -0.114566 -0.255187 -8.786853 0.865839 -0.209688 -0.626654 -28.940063 18.331024 8.111796 0.000000 0.000000 0.000000 -14.673232 34.142070 11.416998 80.266105 -21.485079 -16.097732 -17.332154 7.656312 1.141908 -5.072423 -6.418999 17.477157 0.000000 0.000000 0.000000 0.000000 0.000000 0.000000 -0.324863 -5.922492 -10.880143 -24.737999 58.350597 30.156958 1.674179 -38.329978 2.441799 12.433354 40.089682 -7.927583 0.000000 0.000000 0.000000 0.000000 0.000000 0.000000 -4.990689 24.935575 -8.965449 14.355000 6.828722 2.354258 -2.251948 -2.037832 14.933177 0.000000 0.000000 0.000000 17.708407 53.356679 -7.486730 2.809149 -14.639215 -5.847197 10.849927 -1.205539 -14.246670 0.000000 0.000000 0.000000
-10.706551 69.615662 355.877195 -10.077753 -43.472480 5.596696 0.342839 1.009091 -9.917298 0.897876 0.231449 -0.540504 -32.364440 20.678235 11.006972 0.000000 0.000000 0.000000 -19.136766 34.588207 13.880115 86.272825 -20.581724 -19.399312 -24.246399 15.457991 2.409203 -3.490383 -8.646910 15.755417 0.000000 0.000000 0.000000 0.000000 0.000000 0.000000 -1.129973 -1.025416 -9.735758 -29.995735 58.149125 33.263972 46.735477 -70.705651 42.368619 6.141491 62.078890 -16.450273 0.000000 0.000000 0.000000 0.000000 0.000000 0.000000 -6.392998 28.477695 -8.966343 10.290319 8.303203 3.138444 3.671912 -1.233812 13.028992 0.000000 0.000000 0.000000 13.911487 57.989855 -5.868993 4.600702 -14.830620 -6.130038 12.263598 -1.452038 -14.500807 0.000000 0.000000 0.000000
-8.618685 70.979690 355.249578 -7.881678 -46.071590 7.295787 -0.121160 1.299058 -10.683131 1.057730 0.976939 -0.513908 -32.913274 22.510707 12.074051 0.000000 0.000000 0.000000 -19.813274 35.498585 14.159742 87.301871 -20.521132 -20.776903 -33.064949 26.595214 4.678107 4.757748 -19.928635 17.025977 0.000000 0.000000 0.000000 0.000000 0.000000 0.000000 -3.093928 1.722728 -8.357984 -30.021907 56.133041 33.340935 133.683581 -49.710174 117.140362 -89.141415 56.740117 60.265082 0.000000 0.000000 0.000000 0.000000 0.000000 0.000000 -8.083721 29.142152 -9.421406 4.907167 8.707915 3.920161 15.761650 2.750741 7.474675 0.000000 0.000000 0.000000 7.144072 59.814821 -1.990654 7.038527 -13.915984 -5.989931 13.210250 -1.799261 -14.408913 0.000000 0.000000 0.000000
-7.321106 71.941831 354.197274 -7.002384 -46.805993 8.642974 -0.155481 1.157469 -11.685911 1.087105 1.269958 -0.493307 -30.802701 23.939714 11.418637 0.000000 0.000000 0.000000 -17.280765 36.778889 12.567650 83.866415 -20.364707 -20.498746 -42.229433 30.345440 10.078868 17.888197 -35.584645 22.830414 0.000000 0.000000 0.000000 0.000000 0.000000 0.000000 -2.841077 2.875495 -8.429878 -31.400568 52.504258 33.931610 147.801548 -23.113972 114.122902 -111.317867 34.064080 73.057771 0.000000 0.000000 0.000000 0.000000 0.000000 0.000000 -7.754510 27.272594 -11.394789 0.036689 10.493127 5.258877 15.813479 5.127751 7.898100 0.000000 0.000000 0.000000 4.078361 58.851711 -1.014130 8.442336 -12.198658 -5.540761 13.703211 -2.231756 -14.112812 0.000000 0.000000 0.000000
-5.326294 72.577572 352.349326 -4.482127 -46.926208 10.713772 -0.490682 1.089249 -12.492217 0.922088 1.523452 -0.377485 -29.049056 25.009774 10.592973 0.000000 0.000000 0.000000 -13.653232 38.571829 9.948655 78.758758 -20.117944 -19.224660 -48.794442 32.345559 14.520220 34.999802 -45.649504 32.322686 0.000000 0.000000 0.000000 0.000000 0.000000 0.000000 -4.176058 0.338357 -8.917250 -29.955881 49.507646 34.097329 149.836297 -16.403961 101.847728 -113.043579 22.236960 67.950527 0.000000 0.000000 0.000000 0.000000 0.000000 0.000000 -11.260342 23.049259 -12.637305 -2.451019 13.917164 7.430810 17.811552 14.970595 0.459826 0.000000 0.000000 0.000000 -2.560905 56.821150 1.922047 10.799883 -9.900940 -4.976141 13.959302 -3.063647 -13.405423 0.000000 0.000000 0.000000
-3.067835 72.633667 349.896288 -0.958714 -45.390709 13.347278 -1.302531 0.957688 -13.222863 0.580946 1.787291 -0.192352 -26.519689 23.864683 8.187856 0.000000 0.000000 0.000000 -10.591827 37.695822 7.274596 71.556751 -18.254382 -18.831689 -50.425341 31.512875 17.076173 49.623274 -52.246791 41.072957 0.000000 0.000000 0.000000 0.000000 0.000000 0.000000 -3.516339 -1.829433 -10.026698 -21.783463 38.071940 28.415865 147.381051 -15.022216 65.188089 -128.736943 11.372808 51.387675 0.000000 0.000000 0.000000 0.000000 0.000000 0.000000 -17.347772 20.624660 -12.279028 -1.226414 10.264256 6.269929 25.268727 29.407761 -11.386548 0.000000 0.000000 0.000000 -10.540820 52.667284 4.694885 14.041908 -6.877292 -4.308448 13.192977 -2.921411 -12.091459 0.000000 0.000000 0.000000
-1.613601 72.441716 347.605413 1.104790 -43.463731 12.176250 -1.572147 0.632970 -11.126470 0.135679 1.644963 -0.001494 -23.753032 23.221065 6.226028 0.000000 0.000000 0.000000 -7.634708 36.345154 4.943058 61.979643 -14.938350 -18.278070 -46.070074 26.491208 16.814004 61.923699 -54.801877 46.213630 0.000000 0.000000 0.000000 0.000000 0.000000 0.000000 -1.351021 -1.970108 -11.051285 -19.950555 28.366576 26.790768 -25.151627 -83.610049 -17.530638 9.779326 69.806413 -13.098094 0.000000 0.000000 0.000000 0.000000 0.000000 0.000000 -21.589161 16.785135 -10.283024 0.139197 7.138491 4.898102 31.978591 38.773208 -21.671653 0.000000 0.000000 0.000000 -17.518090 48.166243 8.942054 15.690504 -4.895131 -3.948313 12.450702 -2.634383 -10.784763 0.000000 0.000000 0.000000
-0.160803 72.582305 345.786444 3.724832 -41.794758 12.822332 -1.646982 0.031263 -10.755121 0.018985 1.208598 0.106779 -24.808493 21.407660 5.447127 0.000000 0.000000 0.000000 -7.500827 34.757250 4.083431 51.888448 -10.129922 -17.747455 -41.478577 16.209222 16.252627 61.628146 -54.784591 36.230995 0.000000 0.000000 0.000000 0.000000 0.000000 0.000000 -0.008127 -1.170874 -11.786672 -19.712371 20.384862 26.323098 -12.764933 5.272614 -1.634080 4.841695 -7.287248 -1.334508 0.000000 0.000000 0.000000 0.000000 0.000000 0.000000 -25.341237 14.164902 -9.758226 3.220746 5.196293 3.478896 33.626141 41.719260 -24.956473 0.000000 0.000000 0.000000 -22.924993 44.178416 10.637942 17.715758 -2.867150 -3.670996 11.566424 -2.274642 -9.490817 0.000000 0.000000 0.000000
0.582324 72.467746 344.451453 5.117730 -39.874103 13.464288 -1.586421 -0.419747 -10.984195 -0.172329 1.193589 0.208508 -22.923252 20.583864 4.008632 0.000000 0.000000 0.000000 -8.951692 31.630456 4.354048 42.521018 -5.734432 -15.984449 -37.456558 4.305172 15.110691 52.381975 -51.466028 16.879004 0.000000 0.000000 0.000000 0.000000 0.000000 0.000000 1.431628 -0.283965 -12.090971 -18.382031 12.634554 25.208594 -9.025603 17.711493 -1.623303 0.101515 -12.887794 -0.704596 0.000000 0.000000 0.000000 0.000000 0.000000 0.000000 -27.378822 12.324615 -10.174630 7.206261 4.704579 2.345828 30.078881 39.137546 -21.024154 0.000000 0.000000 0.000000 -24.772800 40.906681 9.750249 18.441964 -1.421105 -3.434949 11.030222 -2.117571 -8.577627 0.000000 0.000000 0.000000
0.753029 72.032932 343.591789 5.245283 -38.342771 14.271178 -1.031726 -0.208792 -12.004077 -0.507924 1.152161 0.321329 -19.014094 20.217139 2.173346 0.000000 0.000000 0.000000 -11.407599 26.719683 5.220999 34.573687 -0.722398 -13.834274 -36.233469 -12.609415 12.127460 38.671380 -35.031556 -6.516270 0.000000 0.000000 0.000000 0.000000 0.000000 0.000000 2.900070 0.943192 -12.016611 -15.058076 6.318215 22.792639 -5.921105 23.924247 -2.394221 -3.316237 -15.573214 -0.743097 0.000000 0.000000 0.000000 0.000000 0.000000 0.000000 -27.359155 10.992897 -11.748964 10.312512 4.605798 1.486849 27.264632 35.820740 -17.500731 0.000000 0.000000 0.000000 -23.878767 38.810857 7.212949 18.218847 -0.270760 -3.134981 10.885623 -2.086839 -8.175586 0.000000 0.000000 0.000000
0.635994 71.438852 342.627956 4.981860 -35.699471 16.177989 -0.649463 -0.325099 -14.275164 -0.744082 0.923556 0.381893 -14.770109 18.682050 0.072886 0.000000 0.000000 0.000000 -16.056721 19.678918 6.674416 29.515806 4.461069 -11.255104 -36.108020 -21.511292 8.275296 33.115473 -1.334460 -13.987588 0.000000 0.000000 0.000000 0.000000 0.000000 0.000000 3.222806 1.695665 -11.231647 -10.958392 3.029534 19.739983 -3.308118 28.159993 -3.710835 -4.489857 -18.495767 -0.485307 0.000000 0.000000 0.000000 0.000000 0.000000 0.000000 -26.964853 8.728319 -15.319865 12.698084 7.755128 1.681874 20.184354 25.277499 -4.157552 0.000000 0.000000 0.000000 -21.493205 35.852290 2.208444 17.801554 1.218722 -2.703945 10.820451 -1.955179 -8.078050 0.000000 0.000000 0.000000
